<?xml version="1.0" standalone="no"?>
<!DOCTYPE svg PUBLIC "-//W3C//DTD SVG 20010904//EN"
 "http://www.w3.org/TR/2001/REC-SVG-20010904/DTD/svg10.dtd">
<svg version="1.0" xmlns="http://www.w3.org/2000/svg"
 width="96.000000pt" height="96.000000pt" viewBox="0 0 96.000000 96.000000"
 preserveAspectRatio="xMidYMid meet">

<g transform="translate(0.000000,96.000000) scale(0.100000,-0.100000)"
fill="#000000" stroke="none">
<path d="M415 866 c-54 -25 -95 -85 -95 -140 0 -22 -5 -24 -65 -28 -88 -5
-113 -30 -131 -125 -7 -37 -11 -70 -9 -72 10 -9 170 -41 263 -52 79 -10 125
-10 205 -1 92 11 252 43 262 53 2 2 -2 35 -9 72 -18 95 -43 120 -131 125 -61
4 -65 6 -65 28 0 104 -130 185 -225 140z m114 -60 c28 -15 51 -53 51 -86 0
-19 -7 -20 -100 -20 -97 0 -100 1 -100 23 2 73 81 118 149 83z"/>
<path d="M90 358 c-8 -46 -13 -97 -13 -114 1 -43 28 -81 68 -95 19 -7 36 -21
38 -31 7 -25 47 -24 54 2 5 19 14 20 243 20 229 0 238 -1 243 -20 7 -26 47
-27 54 -2 2 10 19 24 38 31 40 14 67 52 68 95 1 64 -25 197 -38 192 -13 -5
-202 -41 -266 -51 -25 -4 -39 -13 -47 -30 -21 -45 -92 -42 -107 5 -4 13 -18
21 -43 25 -55 8 -234 43 -258 50 -20 6 -22 1 -34 -77z"/>
</g>
</svg>
