<?xml version="1.0" standalone="no"?>
<!DOCTYPE svg PUBLIC "-//W3C//DTD SVG 20010904//EN"
 "http://www.w3.org/TR/2001/REC-SVG-20010904/DTD/svg10.dtd">
<svg version="1.0" xmlns="http://www.w3.org/2000/svg"
 width="90.000000pt" height="90.000000pt" viewBox="0 0 90.000000 90.000000"
 preserveAspectRatio="xMidYMid meet">

<g transform="translate(0.000000,90.000000) scale(0.100000,-0.100000)"
fill="#000000" stroke="none">
<path d="M383 705 c-45 -19 -63 -61 -63 -145 0 -63 3 -76 31 -116 47 -69 40
-90 -50 -139 -81 -45 -107 -72 -117 -122 l-6 -33 272 0 273 0 -7 33 c-10 50
-36 77 -117 122 -90 49 -97 70 -50 141 27 40 31 53 31 115 0 85 -7 99 -64 133
-50 29 -85 32 -133 11z"/>
<path d="M163 631 c-29 -21 -42 -38 -46 -63 -9 -57 -1 -122 22 -158 44 -73 43
-77 -39 -121 -67 -35 -86 -57 -96 -107 l-6 -32 61 0 c55 0 61 2 61 20 0 56 56
137 115 167 17 8 40 25 52 36 l23 20 -25 43 c-22 37 -25 55 -25 133 l0 91 -28
0 c-16 0 -47 -13 -69 -29z"/>
<path d="M640 569 c0 -78 -3 -96 -25 -133 l-25 -43 23 -20 c12 -11 36 -28 52
-36 59 -30 115 -111 115 -167 0 -18 6 -20 61 -20 l62 0 -6 30 c-10 49 -34 76
-98 110 -81 43 -82 47 -38 120 23 36 31 101 22 158 -7 41 -71 92 -115 92 l-28
0 0 -91z"/>
</g>
</svg>
