<?xml version="1.0" standalone="no"?>
<!DOCTYPE svg PUBLIC "-//W3C//DTD SVG 20010904//EN"
 "http://www.w3.org/TR/2001/REC-SVG-20010904/DTD/svg10.dtd">
<svg version="1.0" xmlns="http://www.w3.org/2000/svg"
 width="260.000000pt" height="238.000000pt" viewBox="0 0 260.000000 238.000000"
 preserveAspectRatio="xMidYMid meet">

<g transform="translate(0.000000,238.000000) scale(0.100000,-0.100000)"
fill="#000000" stroke="none">
<path d="M1054 1600 c-118 -28 -191 -150 -161 -268 54 -205 340 -225 421 -30
48 115 -19 258 -138 293 -54 16 -74 17 -122 5z"/>
<path d="M1523 1540 c-41 -25 -63 -68 -63 -122 0 -178 265 -189 286 -12 14
112 -123 195 -223 134z"/>
<path d="M1502 1239 c-79 -39 -125 -158 -84 -215 25 -34 41 -100 42 -167 l0
-47 173 2 172 3 -1 150 c-1 163 -11 201 -66 253 -50 46 -164 56 -236 21z"/>
<path d="M942 1114 c-59 -29 -96 -69 -126 -134 -18 -40 -20 -66 -21 -235 l0
-190 313 -3 314 -2 -4 192 c-3 175 -5 198 -26 243 -30 65 -66 102 -127 131
-43 21 -65 24 -161 24 -98 0 -116 -3 -162 -26z"/>
</g>
</svg>
