<?xml version="1.0" standalone="no"?>
<!DOCTYPE svg PUBLIC "-//W3C//DTD SVG 20010904//EN"
 "http://www.w3.org/TR/2001/REC-SVG-20010904/DTD/svg10.dtd">
<svg version="1.0" xmlns="http://www.w3.org/2000/svg"
 width="100.000000pt" height="100.000000pt" viewBox="0 0 100.000000 100.000000"
 preserveAspectRatio="xMidYMid meet">

<g transform="translate(0.000000,100.000000) scale(0.100000,-0.100000)"
fill="#000000" stroke="none">
<path d="M0 500 l0 -500 500 0 500 0 0 500 0 500 -500 0 -500 0 0 -500z m289
334 c47 -60 10 -144 -63 -144 -78 0 -119 89 -66 145 34 36 100 36 129 -1z
m490 -224 c61 -43 71 -82 71 -282 l0 -178 -75 0 -75 0 0 144 c0 80 -4 156 -10
170 -21 56 -97 58 -131 3 -16 -28 -19 -52 -19 -174 l0 -143 -75 0 -75 0 0 240
0 241 73 -3 c67 -3 72 -5 75 -26 3 -21 5 -22 20 -9 59 54 159 62 221 17z
m-479 -220 l0 -240 -75 0 -75 0 0 240 0 240 75 0 75 0 0 -240z"/>
</g>
</svg>
