<?xml version="1.0" standalone="no"?>
<!DOCTYPE svg PUBLIC "-//W3C//DTD SVG 20010904//EN"
 "http://www.w3.org/TR/2001/REC-SVG-20010904/DTD/svg10.dtd">
<svg version="1.0" xmlns="http://www.w3.org/2000/svg"
 width="90.000000pt" height="90.000000pt" viewBox="0 0 90.000000 90.000000"
 preserveAspectRatio="xMidYMid meet">

<g transform="translate(0.000000,90.000000) scale(0.100000,-0.100000)"
fill="#000000" stroke="none">
<path d="M410 790 c-11 -11 -20 -26 -20 -33 0 -7 -18 -21 -40 -31 -50 -22
-113 -93 -128 -144 -7 -22 -12 -73 -12 -114 0 -41 -6 -96 -14 -121 l-14 -47
268 0 268 0 -14 47 c-8 25 -14 80 -14 121 0 41 -5 92 -12 114 -15 51 -78 122
-128 144 -22 10 -40 24 -40 31 0 20 -37 53 -60 53 -11 0 -29 -9 -40 -20z"/>
<path d="M124 225 c-15 -39 1 -45 121 -45 l115 0 0 -31 c0 -42 47 -89 90 -89
42 0 90 47 90 89 l0 30 118 3 117 3 0 25 0 25 -323 3 c-280 2 -323 0 -328 -13z"/>
</g>
</svg>
