<?xml version="1.0" standalone="no"?>
<!DOCTYPE svg PUBLIC "-//W3C//DTD SVG 20010904//EN"
 "http://www.w3.org/TR/2001/REC-SVG-20010904/DTD/svg10.dtd">
<svg version="1.0" xmlns="http://www.w3.org/2000/svg"
 width="90.000000pt" height="90.000000pt" viewBox="0 0 90.000000 90.000000"
 preserveAspectRatio="xMidYMid meet">

<g transform="translate(0.000000,90.000000) scale(0.100000,-0.100000)"
fill="#000000" stroke="none">
<path d="M406 788 c-13 -18 -16 -51 -16 -150 l0 -128 -130 0 c-117 0 -132 -2
-150 -20 -11 -11 -20 -29 -20 -40 0 -11 9 -29 20 -40 18 -18 33 -20 150 -20
l130 0 0 -130 c0 -117 2 -132 20 -150 11 -11 29 -20 40 -20 11 0 29 9 40 20
18 18 20 33 20 150 l0 130 130 0 c117 0 132 2 150 20 11 11 20 29 20 40 0 11
-9 29 -20 40 -18 18 -33 20 -150 20 l-130 0 0 128 c0 144 -10 172 -60 172 -18
0 -34 -8 -44 -22z"/>
</g>
</svg>
