<?xml version="1.0" standalone="no"?>
<!DOCTYPE svg PUBLIC "-//W3C//DTD SVG 20010904//EN"
 "http://www.w3.org/TR/2001/REC-SVG-20010904/DTD/svg10.dtd">
<svg version="1.0" xmlns="http://www.w3.org/2000/svg"
 width="90.000000pt" height="90.000000pt" viewBox="0 0 90.000000 90.000000"
 preserveAspectRatio="xMidYMid meet">

<g transform="translate(0.000000,90.000000) scale(0.100000,-0.100000)"
fill="#000000" stroke="none">
<path d="M110 730 c-19 -19 -20 -33 -20 -280 0 -247 1 -261 20 -280 19 -19 33
-20 340 -20 307 0 321 1 340 20 19 19 20 33 20 280 0 247 -1 261 -20 280 -19
19 -33 20 -340 20 -307 0 -321 -1 -340 -20z m640 -280 l0 -240 -300 0 -300 0
0 240 0 240 300 0 300 0 0 -240z"/>
<path d="M244 587 c-3 -8 -4 -41 -2 -73 l3 -59 70 0 70 0 0 70 0 70 -68 3
c-51 2 -69 -1 -73 -11z"/>
<path d="M514 587 c-3 -8 -4 -41 -2 -73 l3 -59 70 0 70 0 0 70 0 70 -68 3
c-51 2 -69 -1 -73 -11z"/>
<path d="M390 420 l0 -30 60 0 60 0 0 30 0 30 -60 0 -60 0 0 -30z"/>
<path d="M300 300 l0 -30 150 0 150 0 0 30 0 30 -150 0 -150 0 0 -30z"/>
</g>
</svg>
